<svg width="16" height="16" viewBox="0 0 16 16" fill="none" xmlns="http://www.w3.org/2000/svg">
<path fill-rule="evenodd" clip-rule="evenodd" d="M11.8255 0.105151C12.7468 0.292923 13.5995 0.728248 14.2919 1.36433C14.9844 2.00041 15.4903 2.81318 15.7555 3.71528C16.0011 4.54241 16.0377 5.41752 15.8617 6.26293C15.6074 7.42119 14.9675 8.45882 14.0466 9.20597C13.1257 9.95313 11.9785 10.3656 10.7927 10.3757C10.2923 10.3757 9.79419 10.3038 9.3155 10.1587L8.40155 11.2303L7.96856 11.4302H6.85468V13.1439L6.28345 13.7151H4.56978V15.4288L3.99856 16H0.571223L0 15.4288V12.7932L0.166797 12.3899L5.84932 6.70735C5.68805 6.18791 5.61092 5.64602 5.62083 5.10221C5.63125 4.34138 5.80937 3.59222 6.14251 2.90812C6.47565 2.22403 6.95561 1.62185 7.54816 1.14451C8.14071 0.667178 8.83127 0.326439 9.57061 0.146586C10.3099 -0.0332677 11.0799 -0.0466629 11.8255 0.105151ZM13.3312 8.33076C14.0489 7.74961 14.548 6.94199 14.7467 6.04016L14.7513 6.04587C14.8928 5.38645 14.8673 4.70212 14.6772 4.05505C14.487 3.40798 14.1382 2.81868 13.6623 2.3407C13.1865 1.86273 12.5988 1.51122 11.9526 1.31813C11.3064 1.12503 10.6222 1.09647 9.96213 1.23503C9.07192 1.43261 8.2734 1.92235 7.69371 2.62625C7.11402 3.33016 6.7865 4.20777 6.76328 5.11935C6.75186 5.6403 6.84325 6.15669 7.03632 6.6388L6.91066 7.25915L1.14245 13.0296V14.8576H3.42734V13.1439L3.99856 12.5727H5.71223V10.859L6.28345 10.2878H7.7058L8.70658 9.12705L9.34749 8.9671C9.80948 9.14764 10.3012 9.23987 10.7973 9.23901C11.7204 9.23193 12.6138 8.91171 13.3312 8.33076ZM12.3738 5.2096C12.4639 5.08513 12.528 4.94377 12.5621 4.79397C12.5963 4.64418 12.5999 4.48903 12.5728 4.33781C12.5456 4.18658 12.4882 4.04239 12.404 3.91386C12.3198 3.78533 12.2106 3.67511 12.0828 3.58977C11.9551 3.50444 11.8114 3.44576 11.6604 3.41723C11.5094 3.38871 11.3543 3.39093 11.2042 3.42376C11.0541 3.4566 10.9121 3.51937 10.7869 3.60833C10.6616 3.69729 10.5556 3.8106 10.4751 3.94148C10.3203 4.19326 10.2691 4.49524 10.3323 4.78397C10.3954 5.0727 10.568 5.32571 10.8138 5.48986C11.0596 5.65401 11.3594 5.71652 11.6503 5.66426C11.9412 5.612 12.2006 5.44903 12.3738 5.2096Z" fill="black"/>
</svg>
