<svg width="84" height="84" viewBox="0 0 84 84" fill="none" xmlns="http://www.w3.org/2000/svg">
<path d="M66.1465 38.2953H45.2581V17.407C45.2581 16.4837 44.8913 15.5982 44.2384 14.9453C43.5855 14.2924 42.7 13.9256 41.7767 13.9256C40.8534 13.9256 39.9679 14.2924 39.315 14.9453C38.6621 15.5982 38.2953 16.4837 38.2953 17.407V38.2953H17.407C16.4836 38.2953 15.5981 38.6621 14.9452 39.315C14.2924 39.9679 13.9256 40.8534 13.9256 41.7767C13.9256 42.7001 14.2924 43.5856 14.9452 44.2385C15.5981 44.8913 16.4836 45.2581 17.407 45.2581H38.2953V66.1465C38.2953 67.0698 38.6621 67.9553 39.315 68.6082C39.9679 69.2611 40.8534 69.6279 41.7767 69.6279C42.7 69.6279 43.5855 69.2611 44.2384 68.6082C44.8913 67.9553 45.2581 67.0698 45.2581 66.1465V45.2581H66.1465C67.0698 45.2581 67.9553 44.8913 68.6082 44.2385C69.2611 43.5856 69.6278 42.7001 69.6278 41.7767C69.6278 40.8534 69.2611 39.9679 68.6082 39.315C67.9553 38.6621 67.0698 38.2953 66.1465 38.2953Z" fill="#3B82F6"/>
</svg>
