<svg width="159" height="199" viewBox="0 0 159 199" fill="none" xmlns="http://www.w3.org/2000/svg">
<path d="M158.25 45.2732V173.356C158.25 186.989 147.198 198.04 133.565 198.04H24.9539C11.3211 198.04 0.26947 186.989 0.26947 173.356V25.2494C0.26947 11.6166 11.3211 0.565027 24.9539 0.565027H113.541C114.852 0.481895 116.217 0.918899 117.309 2.01101L156.804 41.5061C157.896 42.5982 158.333 43.9625 158.25 45.2732ZM108.881 10.4388H24.9539C16.7742 10.4388 10.1432 17.0697 10.1432 25.2494V173.356C10.1432 181.536 16.7742 188.166 24.9539 188.166H133.565C141.745 188.166 148.376 181.536 148.376 173.356V49.9338H113.818C111.091 49.9338 108.881 47.7235 108.881 44.997V10.4388ZM118.755 17.4206V40.0601H141.394L118.755 17.4206ZM44.7014 79.5452C41.9748 79.5452 39.7645 77.3349 39.7645 74.6083C39.7645 71.8818 41.9748 69.6715 44.7014 69.6715H113.818C116.544 69.6715 118.755 71.8818 118.755 74.6083C118.755 77.3349 116.544 79.5452 113.818 79.5452H44.7014ZM44.7014 109.167C41.9748 109.167 39.7645 106.956 39.7645 104.23C39.7645 101.503 41.9748 99.2927 44.7014 99.2927H113.818C116.544 99.2927 118.755 101.503 118.755 104.23C118.755 106.956 116.544 109.167 113.818 109.167H44.7014ZM44.7014 138.788C41.9748 138.788 39.7645 136.577 39.7645 133.851C39.7645 131.124 41.9748 128.914 44.7014 128.914H94.0702C96.7968 128.914 99.0071 131.124 99.0071 133.851C99.0071 136.577 96.7968 138.788 94.0702 138.788H44.7014Z" fill="#3B82F6"/>
</svg>
