<svg width="201" height="201" viewBox="0 0 201 201" fill="none" xmlns="http://www.w3.org/2000/svg">
<path d="M182.636 35.8188H171.971C171.96 35.8188 171.95 35.823 171.942 35.8306C171.935 35.8381 171.93 35.8484 171.93 35.8591V171.93C171.93 175.73 173.44 179.374 176.127 182.061C178.814 184.748 182.458 186.258 186.258 186.258C190.058 186.258 193.702 184.748 196.389 182.061C199.076 179.374 200.585 175.73 200.585 171.93V53.7685C200.585 49.0079 198.694 44.4424 195.328 41.0761C191.962 37.7099 187.396 35.8188 182.636 35.8188Z" fill="#3B82F6"/>
<path d="M157.603 171.93V17.9094C157.603 15.5575 157.14 13.2286 156.239 11.0558C155.339 8.8829 154.02 6.90858 152.357 5.24554C150.694 3.5825 148.72 2.2633 146.547 1.36327C144.374 0.463241 142.045 0 139.693 0H17.9094C13.1595 0 8.60421 1.88688 5.24554 5.24554C1.88688 8.60421 0 13.1595 0 17.9094V175.512C0 182.162 2.64163 188.539 7.34376 193.242C12.0459 197.944 18.4233 200.585 25.0732 200.585H178.579C178.647 200.586 178.714 200.573 178.777 200.547C178.84 200.522 178.897 200.484 178.945 200.436C178.992 200.388 179.03 200.331 179.056 200.268C179.082 200.205 179.095 200.138 179.094 200.07C179.094 199.958 179.056 199.849 178.988 199.759C178.919 199.67 178.822 199.607 178.713 199.578C172.654 197.916 167.306 194.311 163.493 189.316C159.679 184.322 157.61 178.214 157.603 171.93ZM28.655 42.9826C28.655 41.0826 29.4098 39.2605 30.7533 37.917C32.0967 36.5736 33.9189 35.8188 35.8188 35.8188H64.4739C66.3738 35.8188 68.1959 36.5736 69.5394 37.917C70.8829 39.2605 71.6376 41.0826 71.6376 42.9826V71.6376C71.6376 73.5376 70.8829 75.3597 69.5394 76.7032C68.1959 78.0466 66.3738 78.8014 64.4739 78.8014H35.8188C33.9189 78.8014 32.0967 78.0466 30.7533 76.7032C29.4098 75.3597 28.655 73.5376 28.655 71.6376V42.9826ZM121.784 164.767H36.0203C32.1653 164.767 28.8565 161.803 28.664 157.948C28.6173 156.979 28.7678 156.011 29.1063 155.102C29.4448 154.193 29.9643 153.363 30.6332 152.661C31.3022 151.959 32.1067 151.4 32.9981 151.018C33.8895 150.636 34.8491 150.439 35.8188 150.439H121.582C125.437 150.439 128.746 153.403 128.939 157.258C128.985 158.227 128.835 159.195 128.496 160.103C128.158 161.012 127.638 161.843 126.97 162.545C126.301 163.247 125.496 163.806 124.605 164.188C123.713 164.569 122.754 164.766 121.784 164.767ZM121.784 136.111H36.0203C32.1653 136.111 28.8565 133.147 28.664 129.292C28.6173 128.324 28.7678 127.356 29.1063 126.447C29.4448 125.538 29.9643 124.708 30.6332 124.006C31.3022 123.304 32.1067 122.745 32.9981 122.363C33.8895 121.981 34.8491 121.784 35.8188 121.784H121.582C125.437 121.784 128.746 124.748 128.939 128.603C128.985 129.572 128.835 130.54 128.496 131.448C128.158 132.357 127.638 133.188 126.97 133.89C126.301 134.592 125.496 135.151 124.605 135.532C123.713 135.914 122.754 136.111 121.784 136.111ZM121.784 107.456H36.0203C32.1653 107.456 28.8565 104.492 28.664 100.637C28.6173 99.6688 28.7678 98.7008 29.1063 97.7921C29.4448 96.8833 29.9643 96.0528 30.6332 95.3507C31.3022 94.6487 32.1067 94.0898 32.9981 93.7079C33.8895 93.326 34.8491 93.129 35.8188 93.1289H121.582C125.437 93.1289 128.746 96.0929 128.939 99.9479C128.985 100.917 128.835 101.885 128.496 102.793C128.158 103.702 127.638 104.533 126.97 105.235C126.301 105.937 125.496 106.496 124.605 106.877C123.713 107.259 122.754 107.456 121.784 107.456ZM121.784 78.8014H93.3304C89.4754 78.8014 86.1666 75.8374 85.9741 71.9824C85.9274 71.0138 86.0779 70.0458 86.4164 69.137C86.7549 68.2283 87.2744 67.3977 87.9433 66.6957C88.6123 65.9937 89.4168 65.4347 90.3082 65.0528C91.1996 64.6709 92.1592 64.4739 93.1289 64.4739H121.582C125.437 64.4739 128.746 67.4379 128.939 71.2929C128.985 72.2615 128.835 73.2295 128.496 74.1382C128.158 75.0469 127.638 75.8775 126.97 76.5795C126.301 77.2816 125.496 77.8405 124.605 78.2224C123.713 78.6043 122.754 78.8013 121.784 78.8014ZM121.784 50.1463H93.3304C89.4754 50.1463 86.1666 47.1823 85.9741 43.3273C85.9274 42.3587 86.0779 41.3907 86.4164 40.482C86.7549 39.5732 87.2744 38.7427 87.9433 38.0407C88.6123 37.3386 89.4168 36.7797 90.3082 36.3978C91.1996 36.0159 92.1592 35.8189 93.1289 35.8188H121.582C125.437 35.8188 128.746 38.7828 128.939 42.6378C128.985 43.6064 128.835 44.5744 128.496 45.4832C128.158 46.3919 127.638 47.2224 126.97 47.9245C126.301 48.6265 125.496 49.1854 124.605 49.5674C123.713 49.9493 122.754 50.1462 121.784 50.1463Z" fill="#3B82F6"/>
</svg>
