<svg width="158" height="158" viewBox="0 0 158 158" fill="none" xmlns="http://www.w3.org/2000/svg">
<path d="M54.3091 66.653H103.681C106.409 66.653 108.618 64.4436 108.618 61.7158V56.7786C108.618 54.0508 106.409 51.8414 103.681 51.8414H54.3091C51.5813 51.8414 49.3719 54.0508 49.3719 56.7786V61.7158C49.3719 64.4436 51.5813 66.653 54.3091 66.653ZM49.3719 91.339C49.3719 94.0668 51.5813 96.2762 54.3091 96.2762H103.681C106.409 96.2762 108.618 94.0668 108.618 91.339V86.4018C108.618 83.674 106.409 81.4646 103.681 81.4646H54.3091C51.5813 81.4646 49.3719 83.674 49.3719 86.4018V91.339ZM78.995 128.717C73.9282 128.717 68.8615 127.155 64.5352 124.029L0 77.4099V143.179C0 151.36 6.63126 157.991 14.8116 157.991H143.179C151.359 157.991 157.99 151.36 157.99 143.179V77.4099L93.4548 124.029C89.1286 127.152 84.0618 128.717 78.995 128.717ZM152.315 50.2831C149.585 48.1416 146.996 46.1266 143.179 43.2446V29.6241C143.179 21.4438 136.547 14.8125 128.367 14.8125H104.437C103.499 14.1337 102.626 13.498 101.647 12.7883C96.4604 9.00207 86.154 -0.107049 78.995 0.000952066C71.8361 -0.107049 61.5328 9.00207 56.3426 12.7883C55.3644 13.498 54.4912 14.1337 53.5531 14.8125H29.6231C21.4428 14.8125 14.8116 21.4438 14.8116 29.6241V43.2446C10.9945 46.1236 8.40557 48.1416 5.67468 50.2831C3.90704 51.6684 2.47759 53.4376 1.49447 55.4567C0.511347 57.4759 0.000304195 59.6922 0 61.938L0 65.2243L29.6231 86.624V29.6241H128.367V86.624L157.99 65.2243V61.938C157.99 57.3896 155.898 53.0912 152.315 50.2831Z" fill="#3B82F6"/>
</svg>
