<svg width="158" height="158" viewBox="0 0 158 158" fill="none" xmlns="http://www.w3.org/2000/svg">
<path d="M78.995 157.99C122.623 157.99 157.99 122.623 157.99 78.995C157.99 35.3673 122.623 0 78.995 0C35.3673 0 0 35.3673 0 78.995C0 122.623 35.3673 157.99 78.995 157.99Z" fill="url(#paint0_linear_23_18)"/>
<path d="M78.9951 137.535C111.474 137.535 137.804 111.205 137.804 78.7259C137.804 46.2466 111.474 19.917 78.9951 19.917C46.5158 19.917 20.1862 46.2466 20.1862 78.7259C20.1862 111.205 46.5158 137.535 78.9951 137.535Z" stroke="white" stroke-width="8.07445" stroke-miterlimit="10"/>
<path d="M127.442 64.3264C133.767 66.4796 140.63 63.1153 142.783 56.7903C144.936 50.4653 141.572 43.602 135.247 41.4488C128.922 39.2956 122.059 42.66 119.906 48.985C117.752 55.31 121.117 62.1733 127.442 64.3264Z" fill="white"/>
<path d="M131.344 53.0222L90.8375 86.6658" stroke="white" stroke-width="8.07445" stroke-miterlimit="10"/>
<path d="M104.429 122.462C103.891 129.057 108.736 134.978 115.465 135.651C122.193 136.189 127.98 131.344 128.653 124.616C129.191 118.022 124.346 112.1 117.618 111.427C110.889 110.889 104.968 115.734 104.429 122.462Z" fill="white"/>
<path d="M116.407 123.539L90.8375 86.6658" stroke="white" stroke-width="8.07445" stroke-miterlimit="10"/>
<path d="M80.7445 93.2599C84.378 98.912 91.9141 100.527 97.4317 96.8934C103.084 93.2599 104.699 85.7237 101.065 80.2062C97.4317 74.5541 89.8955 72.9392 84.378 76.5727C78.7258 80.0716 77.111 87.6078 80.7445 93.2599Z" fill="white"/>
<path d="M28.5297 82.6285C22.743 79.2642 15.3415 81.1482 11.9771 86.8003C8.61275 92.587 10.4968 99.9886 16.1489 103.353C21.9356 106.717 29.3372 104.833 32.7015 99.1812C36.0659 93.529 34.1818 86.1275 28.5297 82.6285Z" fill="white"/>
<path d="M22.3392 92.9908L90.8375 86.6658" stroke="white" stroke-width="8.07445" stroke-miterlimit="10"/>
<defs>
<linearGradient id="paint0_linear_23_18" x1="78.9493" y1="157.899" x2="78.9493" y2="0" gradientUnits="userSpaceOnUse">
<stop stop-color="#0882C8"/>
<stop offset="1" stop-color="#26B6DB"/>
</linearGradient>
</defs>
</svg>
