<svg width="201" height="211" viewBox="0 0 201 211" fill="none" xmlns="http://www.w3.org/2000/svg">
<path fill-rule="evenodd" clip-rule="evenodd" d="M50.0122 10.9891H40.1526C29.065 10.9891 20.0764 19.9776 20.0764 31.0655V171.601C20.0764 182.688 29.065 191.677 40.1526 191.677H140.535C151.623 191.677 160.611 182.688 160.611 171.601V31.0655C160.611 19.9776 151.623 10.9891 140.535 10.9891H130.318V12.5478V17.571V21.0273H140.535C146.079 21.0273 150.573 25.5216 150.573 31.0655V171.601C150.573 177.144 146.079 181.639 140.535 181.639H40.1526C34.609 181.639 30.1144 177.144 30.1144 171.601V31.0655C30.1144 25.5216 34.609 21.0273 40.1526 21.0273H50.0122V17.571V12.5478V10.9891ZM75.1077 21.0273H105.222V17.571V12.5478V10.9891H75.1077V12.5478V17.571V21.0273Z" fill="#3B82F6"/>
<path fill-rule="evenodd" clip-rule="evenodd" d="M50.0121 65.2484C50.0121 62.4763 52.2592 60.2293 55.0313 60.2293H125.299C128.071 60.2293 130.318 62.4763 130.318 65.2484C130.318 68.0204 128.071 70.2675 125.299 70.2675H55.0313C52.2592 70.2675 50.0121 68.0204 50.0121 65.2484Z" fill="#3B82F6"/>
<path fill-rule="evenodd" clip-rule="evenodd" d="M50.1907 91.295C50.1907 88.523 52.4383 86.2759 55.2098 86.2759H125.477C128.249 86.2759 130.496 88.523 130.496 91.295C130.496 94.0666 128.249 96.3141 125.477 96.3141H55.2098C52.4383 96.3141 50.1907 94.0666 50.1907 91.295Z" fill="#3B82F6"/>
<path fill-rule="evenodd" clip-rule="evenodd" d="M50.1907 116.391C50.1907 113.618 52.4383 111.371 55.2098 111.371H125.477C128.249 111.371 130.496 113.618 130.496 116.391C130.496 119.162 128.249 121.41 125.477 121.41H55.2098C52.4383 121.41 50.1907 119.162 50.1907 116.391Z" fill="#3B82F6"/>
<path fill-rule="evenodd" clip-rule="evenodd" d="M50.1907 141.76C50.1907 138.989 52.4383 136.741 55.2098 136.741H95.3627C98.1347 136.741 100.382 138.989 100.382 141.76C100.382 144.532 98.1347 146.779 95.3627 146.779H55.2098C52.4383 146.779 50.1907 144.532 50.1907 141.76Z" fill="#3B82F6"/>
<path fill-rule="evenodd" clip-rule="evenodd" d="M5.01916 34.9181C7.79116 34.9181 10.0383 37.1652 10.0383 39.9372L10.0382 175.667C10.0382 189.526 21.2739 200.762 35.1335 200.762H130.821C133.593 200.762 135.84 203.009 135.84 205.781C135.84 208.553 133.593 210.8 130.821 210.8H35.1335C15.7299 210.8 0 195.07 0 175.667L5.02592e-05 39.9372C5.02592e-05 37.1652 2.2472 34.9181 5.01916 34.9181Z" fill="#3B82F6"/>
<path fill-rule="evenodd" clip-rule="evenodd" d="M190.547 85.3248H180.509V162.284L185.528 168.977L190.547 162.284V85.3248ZM200.585 165.63L185.528 185.707L170.471 165.63V75.2866H200.585V165.63Z" fill="#3B82F6"/>
<path fill-rule="evenodd" clip-rule="evenodd" d="M190.547 50.1911H180.509V60.2293H190.547V50.1911ZM180.509 40.1528H190.547C196.091 40.1528 200.585 44.647 200.585 50.1911V70.2675H170.471V50.1911C170.471 44.647 174.965 40.1528 180.509 40.1528Z" fill="#3B82F6"/>
<path fill-rule="evenodd" clip-rule="evenodd" d="M117.77 0C121.928 0 125.299 3.37068 125.299 7.52866V22.5901C125.299 26.7481 121.928 30.1187 117.77 30.1187C113.612 30.1187 110.241 26.7481 110.241 22.5901V7.52866C110.241 3.37068 113.612 0 117.77 0Z" fill="#3B82F6"/>
<path fill-rule="evenodd" clip-rule="evenodd" d="M62.6025 0C66.7608 0 70.1312 3.37068 70.1312 7.52866V22.5901C70.1312 26.7481 66.7608 30.1187 62.6025 30.1187C58.4447 30.1187 55.0739 26.7481 55.0739 22.5901V7.52866C55.0739 3.37068 58.4447 0 62.6025 0Z" fill="#3B82F6"/>
</svg>
