<svg width="201" height="268" viewBox="0 0 201 268" fill="none" xmlns="http://www.w3.org/2000/svg">
<path d="M193.22 51.191L149.394 7.36524C144.693 2.66402 138.32 0 131.686 0H25.0732C11.2307 0.0522358 0 11.2829 0 25.1254V242.426C0 256.269 11.2307 267.499 25.0732 267.499H175.512C189.355 267.499 200.585 256.269 200.585 242.426V68.9512C200.585 62.3173 197.921 55.8923 193.22 51.191ZM173.475 66.914H133.724V27.1626L173.475 66.914ZM25.0732 242.426V25.1254H108.65V79.4506C108.65 86.398 114.24 91.9872 121.187 91.9872H175.512V242.426H25.0732Z" fill="#3B82F6"/>
</svg>
